<svg width="16" height="18" viewBox="0 0 16 18" fill="none" xmlns="http://www.w3.org/2000/svg">
<path d="M8.13373 11.0433V17.5H2.10222e-07C-0.000252239 16.4824 0.226867 15.4783 0.663956 14.5645C1.10104 13.6507 1.7365 12.8516 2.52163 12.2284C3.30677 11.6051 4.22074 11.1743 5.19351 10.9689C6.16629 10.7635 7.17205 10.7889 8.13373 11.0433V11.0433ZM6.50699 10C3.81065 10 1.62675 7.7625 1.62675 5C1.62675 2.2375 3.81065 0 6.50699 0C9.20332 0 11.3872 2.2375 11.3872 5C11.3872 7.7625 9.20332 10 6.50699 10ZM11.3872 13.3333V10.8333H13.014V13.3333H15.4541V15H13.014V17.5H11.3872V15H8.94711V13.3333H11.3872Z" fill="white"/>
</svg>
