<svg width="24" height="22" viewBox="0 0 24 22" fill="none" xmlns="http://www.w3.org/2000/svg">
<path d="M1.2 0H22.8C23.1183 0 23.4235 0.126428 23.6485 0.351472C23.8736 0.576515 24 0.88174 24 1.2V20.4C24 20.7183 23.8736 21.0235 23.6485 21.2485C23.4235 21.4736 23.1183 21.6 22.8 21.6H1.2C0.88174 21.6 0.576515 21.4736 0.351472 21.2485C0.126428 21.0235 0 20.7183 0 20.4V1.2C0 0.88174 0.126428 0.576515 0.351472 0.351472C0.576515 0.126428 0.88174 0 1.2 0V0ZM21.6 9.6H2.4V19.2H21.6V9.6ZM21.6 7.2V2.4H2.4V7.2H21.6ZM14.4 14.4H19.2V16.8H14.4V14.4Z" fill="#1C68FB"/>
</svg>
