<svg width="32" height="32" viewBox="0 0 32 32" fill="none" xmlns="http://www.w3.org/2000/svg">
<g clip-path="url(#clip0_141_6448)">
<path d="M4.00002 4H28C28.3536 4 28.6928 4.14048 28.9428 4.39052C29.1929 4.64057 29.3334 4.97971 29.3334 5.33333V26.6667C29.3334 27.0203 29.1929 27.3594 28.9428 27.6095C28.6928 27.8595 28.3536 28 28 28H4.00002C3.6464 28 3.30726 27.8595 3.05721 27.6095C2.80716 27.3594 2.66669 27.0203 2.66669 26.6667V5.33333C2.66669 4.97971 2.80716 4.64057 3.05721 4.39052C3.30726 4.14048 3.6464 4 4.00002 4V4ZM26.6667 14.6667H5.33335V25.3333H26.6667V14.6667ZM26.6667 12V6.66667H5.33335V12H26.6667ZM18.6667 20H24V22.6667H18.6667V20Z" fill="#1C68FB"/>
</g>
<defs>
<clipPath id="clip0_141_6448">
<rect width="32" height="32" fill="white"/>
</clipPath>
</defs>
</svg>
