<svg width="18" height="18" viewBox="0 0 18 18" fill="none" xmlns="http://www.w3.org/2000/svg">
<path d="M8.25 1.53748V9.74997H16.4625C16.0868 13.5397 12.8888 16.5 9 16.5C4.85775 16.5 1.5 13.1422 1.5 8.99997C1.5 5.11123 4.46025 1.91323 8.25 1.53748V1.53748ZM9.75 1.53748C11.4712 1.71087 13.0797 2.47379 14.3029 3.69705C15.5262 4.92031 16.2891 6.52874 16.4625 8.24997H9.75V1.53748Z" fill="#1D1B1E"/>
<path d="M8.25 1.53748V9.74997H16.4625C16.0868 13.5397 12.8888 16.5 9 16.5C4.85775 16.5 1.5 13.1422 1.5 8.99997C1.5 5.11123 4.46025 1.91323 8.25 1.53748V1.53748ZM9.75 1.53748C11.4712 1.71087 13.0797 2.47379 14.3029 3.69705C15.5262 4.92031 16.2891 6.52874 16.4625 8.24997H9.75V1.53748Z" fill="#D3BBFF" fill-opacity="0.14"/>
</svg>
