<svg width="18" height="18" viewBox="0 0 18 18" fill="none" xmlns="http://www.w3.org/2000/svg">
<path d="M17.896 11.9686C17.755 13.5283 17.5284 14.7958 17.2527 15.9267C17.069 17.0576 15.9663 18 14.7718 18H13.3015C12.4745 18 11.8313 17.3403 11.8313 16.4921V12.6283C11.8313 11.6859 11.0962 10.9319 10.1773 10.9319H8.06382C7.14495 10.9319 6.40984 11.6859 6.40984 12.6283V16.4921C6.40984 17.3403 5.76662 18 4.93962 18H3.19373C1.99917 18 0.988388 17.1518 0.712718 15.9267C0.437057 14.7016 0.198044 13.5294 0.0694971 11.9686C-0.0936369 9.98766 0.0694973 8.10468 0.161387 6.87958C0.161387 6.12565 0.620837 5.37173 1.26406 4.90053L7.69626 0.471204C8.06382 0.188478 8.52327 0 8.98272 0C9.44217 0 9.99351 0.188478 10.3611 0.471204L16.7933 4.90053C17.4365 5.37173 17.896 6.12565 17.896 6.87958C17.9878 8.10468 18.0748 9.98937 17.896 11.9686Z" fill="#36313E"/>
</svg>
