<svg width="27" height="17" viewBox="0 0 27 17" fill="none" xmlns="http://www.w3.org/2000/svg">
<path d="M9.6167 1.74234H16.7443V14.5495H9.6167V1.74234Z" fill="#FF5F00"/>
<path d="M10.0693 8.14593C10.0693 5.54379 11.2912 3.23574 13.1692 1.74228C11.789 0.656176 10.0467 0 8.14603 0C3.64298 0 0 3.64298 0 8.14593C0 12.6488 3.64298 16.2919 8.14593 16.2919C10.0466 16.2919 11.7889 15.6357 13.1692 14.5495C11.2912 13.0787 10.0693 10.7481 10.0693 8.14593V8.14593Z" fill="#EB001B"/>
<path d="M26.3611 8.14593C26.3611 12.6488 22.7181 16.2919 18.2152 16.2919C16.3145 16.2919 14.5722 15.6357 13.1919 14.5495C15.0926 13.0561 16.2919 10.7481 16.2919 8.14593C16.2919 5.54379 15.0699 3.23574 13.1919 1.74228C14.5721 0.656176 16.3145 0 18.2152 0C22.7181 0 26.3612 3.66566 26.3612 8.14593H26.3611Z" fill="#F79E1B"/>
</svg>
