<svg width="195" height="166" viewBox="0 0 195 166" fill="none" xmlns="http://www.w3.org/2000/svg">
<path opacity="0.2" d="M105.463 165.495C149.012 165.495 184.316 130.191 184.316 86.6415C184.316 43.0919 149.012 7.78802 105.463 7.78802C61.9133 7.78802 26.6094 43.0919 26.6094 86.6415C26.6094 130.191 61.9133 165.495 105.463 165.495Z" fill="url(#paint0_linear_85_6946)"/>
<path d="M98.6989 6.57046L36.3442 56.7482V137.912C36.3442 145.081 42.1556 150.892 49.3242 150.892H163.932C171.1 150.892 176.912 145.081 176.912 137.912V56.7482L115.007 6.59721C110.256 2.7481 103.463 2.73695 98.6989 6.57046Z" fill="#CCC6D9"/>
<rect x="56.627" y="22.0298" width="100.473" height="125.073" rx="15.576" fill="url(#paint1_linear_85_6946)"/>
<path d="M65.2715 40.887C65.2715 39.4532 66.4338 38.291 67.8675 38.291H143.448C144.882 38.291 146.044 39.4532 146.044 40.887V40.887C146.044 42.3207 144.882 43.483 143.448 43.483H67.8675C66.4338 43.483 65.2715 42.3207 65.2715 40.887V40.887Z" fill="#CCC6D9"/>
<path d="M65.2715 57.761C65.2715 56.3273 66.4338 55.165 67.8675 55.165H143.448C144.882 55.165 146.044 56.3273 146.044 57.761V57.761C146.044 59.1948 144.882 60.357 143.448 60.357H67.8675C66.4338 60.357 65.2715 59.1948 65.2715 57.761V57.761Z" fill="#D5D5D5"/>
<path d="M65.2715 74.635C65.2715 73.2013 66.4338 72.039 67.8675 72.039H143.448C144.882 72.039 146.044 73.2013 146.044 74.635V74.635C146.044 76.0687 144.882 77.231 143.448 77.231H67.8675C66.4338 77.231 65.2715 76.0687 65.2715 74.635V74.635Z" fill="#D5D5D5"/>
<path d="M65.2715 91.509C65.2715 90.0752 66.4338 88.913 67.8675 88.913H143.448C144.882 88.913 146.044 90.0752 146.044 91.509V91.509C146.044 92.9427 144.882 94.105 143.448 94.105H67.8675C66.4338 94.105 65.2715 92.9427 65.2715 91.509V91.509Z" fill="#D5D5D5"/>
<path fill-rule="evenodd" clip-rule="evenodd" d="M36.3442 56.6143V137.912C36.3442 145.081 42.1556 150.892 49.3242 150.892H127.896C140.525 150.892 145.716 134.685 135.437 127.348L36.3442 56.6143Z" fill="url(#paint2_linear_85_6946)"/>
<path fill-rule="evenodd" clip-rule="evenodd" d="M176.911 56.6143V137.913C176.911 145.081 171.1 150.893 163.931 150.893H48.471L176.911 56.6143Z" fill="#E1DCEB"/>
<path fill-rule="evenodd" clip-rule="evenodd" d="M177.177 57.8363L53.3174 150.893H48.1479L175.654 55.7389L177.177 57.8363Z" fill="#CCC6D9"/>
<path fill-rule="evenodd" clip-rule="evenodd" d="M15.4995 122.813C14.4892 119.329 12.4995 116.604 9.44987 114.636C9.09037 114.404 8.98499 113.921 9.21743 113.559C9.44677 113.197 9.92717 113.092 10.2867 113.324C13.6617 115.503 15.8683 118.519 16.9871 122.376C17.108 122.789 16.8693 123.222 16.4602 123.342C16.048 123.463 15.6173 123.225 15.4995 122.813Z" fill="#E1DCEB"/>
<path fill-rule="evenodd" clip-rule="evenodd" d="M50.3186 118.085C50.9198 118.797 51.4591 119.563 51.9178 120.38C52.1223 120.743 52.4819 121.516 52.5376 122.178C52.5996 122.884 52.361 123.48 51.7474 123.793C50.9323 124.209 50.2814 124.166 49.7794 123.914C49.2959 123.672 48.9178 123.198 48.6792 122.561C48.2236 121.344 48.2918 119.485 48.5304 118.424C47.8889 117.758 47.1854 117.154 46.4322 116.617C40.8227 112.619 32.5943 114.093 26.2627 120.071C24.0468 122.164 22.9807 126.56 22.4259 131.302C21.5612 138.686 22.054 146.934 22.1222 149.35C22.1377 149.947 22.0819 150.301 22.0509 150.371C21.9053 150.719 21.648 150.81 21.4683 150.844C21.2079 150.891 21.0003 150.841 20.833 150.754C20.6067 150.634 20.4207 150.423 20.334 150.098C20.2875 149.919 20.2751 149.669 20.2813 149.402C20.2875 149.217 20.3247 149.015 20.2875 148.883C20.0458 148.034 19.7544 147.205 19.4693 146.371C18.5179 143.566 17.2875 140.937 15.9207 138.311C11.5788 129.968 7.37938 121.152 0.260543 114.795C-0.0586736 114.51 -0.0896912 114.017 0.195434 113.695C0.47746 113.374 0.967141 113.344 1.28946 113.63C8.55086 120.112 12.8649 129.08 17.2937 137.588C18.4559 139.822 19.522 142.058 20.4084 144.398C20.3185 140.259 20.3526 134.531 21.1057 129.462C21.7751 124.954 23.0489 120.97 25.2028 118.935C32.1388 112.386 41.1853 110.966 47.3279 115.346C47.9849 115.815 48.611 116.33 49.1936 116.889C52.4075 111.052 59.2877 108.713 65.3683 111.504C65.7588 111.683 65.9292 112.146 65.7526 112.537C65.5728 112.928 65.1142 113.101 64.7237 112.922C59.2443 110.407 53.0304 112.652 50.3186 118.085ZM49.8692 120.039C50.1203 120.396 50.3527 120.766 50.5697 121.148C50.6843 121.353 50.8827 121.747 50.9664 122.133C50.985 122.224 50.988 122.365 50.988 122.431C50.7742 122.536 50.6069 122.588 50.4705 122.519C50.3 122.434 50.2132 122.234 50.1296 122.012C49.9188 121.452 49.8506 120.711 49.8692 120.039Z" fill="#E1DCEB"/>
<path fill-rule="evenodd" clip-rule="evenodd" d="M170.995 26.5724C171.781 23.3856 171.73 20.3166 171.824 17.0841C171.843 16.4528 171.345 15.928 170.714 15.909C170.082 15.89 169.555 16.3882 169.536 17.0195C169.447 20.0846 169.519 23.0014 168.773 26.0286C168.622 26.6409 168.998 27.2607 169.611 27.409C170.224 27.5612 170.845 27.1847 170.995 26.5724Z" fill="#E1DCEB"/>
<path fill-rule="evenodd" clip-rule="evenodd" d="M177.674 32.7484C183.007 27.8882 188.032 21.6362 191.544 15.3234C191.85 14.7719 191.651 14.076 191.098 13.7717C190.546 13.4675 189.849 13.6653 189.543 14.2167C186.146 20.3204 181.287 26.3671 176.13 31.0637C175.664 31.4897 175.631 32.2122 176.057 32.6762C176.484 33.1401 177.208 33.1743 177.674 32.7484Z" fill="#E1DCEB"/>
<path fill-rule="evenodd" clip-rule="evenodd" d="M179.025 38.0572C183.903 38.8597 188.93 37.4906 193.365 35.5549C193.944 35.3001 194.208 34.627 193.955 34.0528C193.702 33.4747 193.026 33.2123 192.447 33.4633C188.408 35.2279 183.84 36.5361 179.398 35.8059C178.774 35.7033 178.185 36.1254 178.082 36.7452C177.979 37.3651 178.402 37.9546 179.025 38.0572Z" fill="#E1DCEB"/>
<path fill-rule="evenodd" clip-rule="evenodd" d="M38.1451 15.3263C38.8401 15.0786 39.5713 14.7495 40.1353 14.2731C40.805 13.7071 41.0774 12.9783 41.2603 12.2111C41.4952 11.2254 41.589 10.1754 41.8738 9.18811C41.9792 8.82147 42.1821 8.68288 42.2692 8.62138C42.4893 8.46602 42.7117 8.42449 42.921 8.44007C43.169 8.45804 43.5097 8.55189 43.7337 8.96765C43.7657 9.02716 43.8072 9.11782 43.8352 9.24203C43.8555 9.33309 43.8687 9.61784 43.8903 9.73526C43.9442 10.0244 43.9893 10.3136 44.0317 10.6043C44.1726 11.572 44.2537 12.394 44.699 13.283C45.3033 14.4899 45.9088 15.2284 46.7299 15.5555C47.5239 15.8718 48.4732 15.8123 49.6862 15.5643C49.8016 15.5363 49.9158 15.5124 50.0288 15.4928C50.5636 15.3993 51.0748 15.7504 51.1798 16.2832C51.2849 16.8156 50.945 17.3344 50.415 17.4514C50.3044 17.4757 50.1954 17.4989 50.0875 17.5201C48.4485 17.9258 46.551 19.374 45.4483 20.6421C45.1084 21.0331 44.6108 22.1262 44.1032 22.8235C43.7285 23.3379 43.3076 23.677 42.9541 23.7968C42.7173 23.8775 42.5176 23.8651 42.3527 23.8244C42.113 23.7653 41.9141 23.6354 41.7616 23.429C41.6785 23.3159 41.6014 23.1646 41.5647 22.9713C41.5471 22.8782 41.5451 22.6418 41.5455 22.5348C41.4421 22.1789 41.3155 21.8314 41.2232 21.4724C41.0031 20.6157 40.5714 20.0733 40.0586 19.3568C39.5789 18.6863 39.0637 18.2649 38.3085 17.9286C38.2102 17.9047 37.4175 17.7106 37.1375 17.5991C36.7285 17.4358 36.5336 17.1622 36.4629 17.0148C36.3427 16.7648 36.3303 16.5464 36.3543 16.3643C36.3899 16.0955 36.5105 15.8654 36.7245 15.6797C36.8571 15.5643 37.0552 15.4521 37.3204 15.3973C37.5253 15.3546 38.0688 15.3299 38.1451 15.3263ZM42.796 13.93C42.8327 14.0119 42.8719 14.0942 42.9134 14.1772C43.7984 15.9449 44.7881 16.9318 45.991 17.4106L46.0314 17.4262C45.2266 18.0237 44.4981 18.6915 43.9414 19.3317C43.7121 19.5953 43.4086 20.1428 43.0807 20.7044C42.7828 19.7359 42.2955 19.0513 41.6829 18.1946C41.2148 17.5408 40.7244 17.0488 40.1217 16.6478C40.5894 16.4078 41.0355 16.1266 41.4241 15.7983C42.0711 15.2516 42.4988 14.6181 42.796 13.93Z" fill="#E3E3E3"/>
<defs>
<linearGradient id="paint0_linear_85_6946" x1="104.855" y1="-17.8886" x2="106.47" y2="259.033" gradientUnits="userSpaceOnUse">
<stop stop-color="#F2F2F2"/>
<stop offset="1" stop-color="#EFEFEF"/>
</linearGradient>
<linearGradient id="paint1_linear_85_6946" x1="106.863" y1="22.0298" x2="106.863" y2="147.102" gradientUnits="userSpaceOnUse">
<stop stop-color="white"/>
<stop offset="0.71875" stop-color="#EAEAEA"/>
</linearGradient>
<linearGradient id="paint2_linear_85_6946" x1="36.3442" y1="56.4629" x2="133.045" y2="164.846" gradientUnits="userSpaceOnUse">
<stop stop-color="#E1DCEB"/>
<stop offset="1" stop-color="#B3AFBA"/>
</linearGradient>
</defs>
</svg>
