<svg width="172" height="168" viewBox="0 0 172 168" fill="none" xmlns="http://www.w3.org/2000/svg">
<path opacity="0.2" d="M83.9266 168C128.846 168 165.26 131.735 165.26 87C165.26 42.2647 128.846 6 83.9266 6C39.0073 6 2.59326 42.2647 2.59326 87C2.59326 131.735 39.0073 168 83.9266 168Z" fill="url(#paint0_linear_91_6485)"/>
<path fill-rule="evenodd" clip-rule="evenodd" d="M148.93 50.8007C151.681 48.782 152.275 44.9153 150.257 42.164C148.239 39.4127 144.372 38.8186 141.621 40.8373C138.869 42.8553 138.275 46.722 140.293 49.4733C141.539 51.1707 143.487 52.0466 145.442 51.996C145.582 51.98 145.727 51.9713 145.874 51.9693C146.944 51.866 148.001 51.4826 148.93 50.8007ZM120.709 52.4686C126.809 53.8266 132.356 54.6746 137.93 53.918C137.397 53.4333 136.904 52.8886 136.461 52.2853C132.89 47.4173 133.941 40.576 138.809 37.0053C143.677 33.434 150.518 34.4847 154.089 39.3527C155.947 41.8847 156.554 44.9513 156.023 47.8133C160.431 45.32 164.355 42.1706 167.403 38.1433C168.196 37.0973 169.68 36.9253 170.719 37.76C171.759 38.5947 171.959 40.1193 171.167 41.166C165.663 48.4373 157.974 52.6973 150.052 55.6533C148.928 56.2006 147.74 56.54 146.54 56.6787C137.567 59.932 128.31 59.1473 119.661 57.2213C118.391 56.9386 117.597 55.6453 117.886 54.3333C118.175 53.0206 119.439 52.186 120.709 52.4686Z" fill="#848383"/>
<path d="M131.594 52.3334C131.594 36.6854 118.908 24 103.26 24H76.2603V80.6667H103.26C118.908 80.6667 131.594 67.9813 131.594 52.3334Z" fill="url(#paint1_linear_91_6485)"/>
<path d="M99.8659 70.3707C95.8519 78.154 89.1319 83.2507 81.5239 83.2507H74.1753C61.8733 83.2507 51.8979 69.922 51.8979 53.4853C51.8979 37.0487 61.8733 23.7247 74.1753 23.72H81.5473C89.1553 23.72 95.8839 28.8073 99.8893 36.6C102.471 41.8527 103.813 47.628 103.813 53.4807C103.813 59.3333 102.471 65.1087 99.8893 70.3613L99.8659 70.3707Z" fill="#848383"/>
<path d="M92.4333 70.3707C88.4287 78.14 81.7227 83.232 74.1287 83.2507C61.836 83.2507 51.874 69.9126 51.874 53.4853C51.874 37.058 61.836 23.7387 74.1287 23.72C81.7227 23.72 88.4287 28.8073 92.4333 36.6C95.0187 41.852 96.3627 47.6273 96.3627 53.4807C96.3627 59.334 95.0187 65.1093 92.4333 70.3613V70.3707Z" fill="#E1DCEB"/>
<path d="M74.7948 58.9733C73.7108 57.0267 71.8948 55.7513 69.8388 55.7467C66.5101 55.7467 63.8135 59.088 63.8135 63.2033C63.8135 67.3187 66.5101 70.6553 69.8388 70.66C71.8948 70.66 73.7108 69.386 74.7948 67.4333C75.4948 66.118 75.8588 64.6707 75.8588 63.2047C75.8588 61.738 75.4948 60.2913 74.7948 58.9753V58.9733Z" fill="#CCC6D9"/>
<path d="M74.7948 38.8973C73.7108 36.9507 71.8948 35.6753 69.8388 35.6707C66.5101 35.6707 63.8135 39.012 63.8135 43.1273C63.8135 47.2426 66.5101 50.5793 69.8388 50.584C71.8948 50.584 73.7108 49.3093 74.7948 47.3573C75.4948 46.0413 75.8588 44.5946 75.8588 43.1286C75.8588 41.662 75.4948 40.2153 74.7948 38.8993V38.8973Z" fill="#CCC6D9"/>
<path d="M49.5933 63.65C49.5933 66.4207 51.8393 68.6667 54.6099 68.6667H68.9266C71.8719 68.6667 74.2599 66.2793 74.2599 63.3333C74.2599 60.388 71.8719 58 68.9266 58H54.6099C51.8393 58 49.5933 60.246 49.5933 63.0173V63.65Z" fill="#848383"/>
<path d="M49.5933 43C49.5933 45.7613 51.8319 48 54.5933 48H69.2599C72.0213 48 74.2599 45.7613 74.2599 43C74.2599 40.2387 72.0213 38 69.2599 38H54.5933C51.8319 38 49.5933 40.2387 49.5933 43Z" fill="#848383"/>
<path fill-rule="evenodd" clip-rule="evenodd" d="M90.1611 78.786H103.818V80.786H90.1611V78.786Z" fill="#848383"/>
<path fill-rule="evenodd" clip-rule="evenodd" d="M2.49845 121.896C14.0284 114.973 27.0904 113.655 39.5964 114.069C41.3831 114.128 42.7838 115.625 42.7244 117.411C42.6658 119.199 41.1691 120.599 39.3818 120.54C27.3798 120.142 15.7964 121.463 5.83178 127.447C4.29845 128.367 2.30978 127.871 1.38978 126.338C0.469116 124.805 0.965784 122.817 2.49845 121.896Z" fill="#848383"/>
<path d="M30.2603 117.333C30.2603 101.869 42.7963 89.3333 58.2602 89.3333H85.5936V145.333H58.2602C42.7963 145.333 30.2603 132.797 30.2603 117.333Z" fill="url(#paint2_linear_91_6485)"/>
<path d="M57.5685 135.79C61.5871 143.574 68.3071 148.67 75.9145 148.67H83.2865C95.5885 148.67 105.564 135.341 105.564 118.905C105.564 102.469 95.5885 89.1447 83.2865 89.14H75.9145C68.3071 89.14 61.5778 94.2273 57.5685 102.02C54.9405 107.258 53.5951 113.045 53.6418 118.905C53.5951 124.765 54.9405 130.552 57.5685 135.79Z" fill="#848383"/>
<path d="M64.9991 135.79C69.0085 143.56 75.7098 148.652 83.3085 148.67C95.6011 148.67 105.563 135.333 105.563 118.905C105.563 102.478 95.6011 89.1587 83.3085 89.1447C75.7098 89.1447 69.0085 94.232 64.9991 102.02C62.3711 107.258 61.0258 113.045 61.0725 118.905C61.0258 124.765 62.3711 130.552 64.9991 135.79Z" fill="#E1DCEB"/>
<path d="M85.3238 122.858C88.3332 122.858 90.7732 126.068 90.7732 130.028C90.7732 133.988 88.3332 137.198 85.3238 137.198C82.3138 137.198 79.8745 133.988 79.8745 130.028C79.8745 126.068 82.3138 122.858 85.3238 122.858Z" fill="#CCC6D9"/>
<path d="M85.3238 99.914C88.3332 99.914 90.7732 103.124 90.7732 107.084C90.7732 111.044 88.3332 114.254 85.3238 114.254C82.3138 114.254 79.8745 111.044 79.8745 107.084C79.8745 103.124 82.3138 99.914 85.3238 99.914Z" fill="#CCC6D9"/>
<path fill-rule="evenodd" clip-rule="evenodd" d="M55.6597 143.477H67.1603V145.477H55.6597V143.477Z" fill="#848383"/>
<path fill-rule="evenodd" clip-rule="evenodd" d="M142.975 14.3354C143.846 10.8058 143.789 7.40688 143.893 3.82675C143.914 3.12755 143.363 2.54628 142.664 2.52521C141.964 2.50414 141.38 3.05595 141.359 3.75515C141.261 7.14988 141.341 10.3804 140.515 13.7331C140.347 14.4112 140.763 15.0977 141.443 15.262C142.121 15.4307 142.809 15.0135 142.975 14.3354Z" fill="#E1DCEB"/>
<path fill-rule="evenodd" clip-rule="evenodd" d="M150.373 21.1753C156.279 15.7927 161.844 8.86828 165.734 1.87655C166.074 1.26582 165.852 0.495022 165.241 0.158089C164.629 -0.178911 163.857 0.0401585 163.518 0.650892C159.756 7.41096 154.374 14.1079 148.663 19.3093C148.146 19.7813 148.11 20.5813 148.582 21.0953C149.054 21.6093 149.856 21.6473 150.373 21.1753Z" fill="#E1DCEB"/>
<path fill-rule="evenodd" clip-rule="evenodd" d="M151.868 27.0554C157.27 27.944 162.838 26.428 167.75 24.2841C168.392 24.0021 168.684 23.256 168.404 22.62C168.123 21.98 167.375 21.6894 166.734 21.9674C162.26 23.9214 157.201 25.3707 152.281 24.5621C151.591 24.4481 150.938 24.9154 150.824 25.602C150.71 26.2887 151.178 26.9414 151.868 27.0554Z" fill="#E1DCEB"/>
<path fill-rule="evenodd" clip-rule="evenodd" d="M3.02527 155.701C3.79527 155.427 4.60527 155.063 5.22993 154.535C5.97127 153.908 6.27326 153.101 6.47593 152.251C6.73593 151.159 6.83993 149.997 7.15527 148.903C7.27193 148.497 7.4966 148.343 7.59327 148.275C7.8366 148.103 8.08327 148.057 8.3146 148.075C8.58993 148.095 8.9666 148.199 9.21526 148.659C9.2506 148.725 9.2966 148.825 9.32726 148.963C9.34993 149.064 9.3646 149.379 9.3886 149.509C9.44793 149.829 9.49793 150.149 9.54527 150.472C9.70127 151.543 9.79127 152.454 10.2839 153.439C10.9533 154.775 11.6239 155.593 12.5333 155.955C13.4126 156.305 14.4639 156.24 15.8079 155.965C15.9353 155.934 16.0619 155.907 16.1873 155.886C16.7793 155.783 17.3459 156.171 17.4619 156.761C17.5786 157.351 17.2019 157.925 16.6146 158.055C16.4926 158.082 16.3719 158.108 16.2519 158.131C14.4366 158.581 12.3353 160.185 11.1139 161.589C10.7373 162.022 10.1866 163.233 9.62393 164.005C9.20926 164.575 8.74327 164.95 8.35193 165.083C8.08927 165.172 7.86793 165.159 7.68527 165.113C7.41993 165.048 7.19993 164.904 7.0306 164.675C6.9386 164.55 6.85327 164.383 6.8126 164.169C6.79327 164.065 6.79126 163.803 6.79126 163.685C6.67726 163.291 6.5366 162.906 6.4346 162.509C6.1906 161.559 5.7126 160.959 5.1446 160.165C4.61327 159.423 4.0426 158.956 3.2066 158.583C3.09793 158.557 2.21927 158.342 1.90927 158.219C1.4566 158.038 1.2406 157.735 1.1626 157.571C1.02927 157.295 1.01527 157.053 1.04193 156.851C1.08127 156.553 1.21527 156.299 1.45194 156.093C1.59927 155.965 1.8186 155.841 2.11193 155.78C2.33927 155.733 2.94127 155.705 3.02527 155.701ZM8.1766 154.155C8.21727 154.245 8.2606 154.337 8.3066 154.429C9.2866 156.387 10.3826 157.479 11.7153 158.01L11.7599 158.027C10.8686 158.689 10.0619 159.429 9.44527 160.137C9.19127 160.429 8.85527 161.036 8.49193 161.658C8.16193 160.585 7.62193 159.827 6.94393 158.878C6.42527 158.154 5.88193 157.609 5.2146 157.165C5.7326 156.899 6.2266 156.588 6.65727 156.224C7.37393 155.619 7.84727 154.917 8.1766 154.155Z" fill="#E3E3E3"/>
<defs>
<linearGradient id="paint0_linear_91_6485" x1="83.2999" y1="-20.3756" x2="84.9519" y2="264.084" gradientUnits="userSpaceOnUse">
<stop stop-color="#F2F2F2"/>
<stop offset="1" stop-color="#EFEFEF"/>
</linearGradient>
<linearGradient id="paint1_linear_91_6485" x1="131.594" y1="23.9094" x2="74.8309" y2="68.2533" gradientUnits="userSpaceOnUse">
<stop stop-color="#E1DCEB"/>
<stop offset="1" stop-color="#B3AFBA"/>
</linearGradient>
<linearGradient id="paint2_linear_91_6485" x1="30.2603" y1="89.2433" x2="86.5122" y2="133.712" gradientUnits="userSpaceOnUse">
<stop stop-color="#E1DCEB"/>
<stop offset="1" stop-color="#B3AFBA"/>
</linearGradient>
</defs>
</svg>
