<svg width="202" height="169" viewBox="0 0 202 169" fill="none" xmlns="http://www.w3.org/2000/svg">
<path opacity="0.2" d="M101.15 169C147.818 169 185.65 131.168 185.65 84.5C185.65 37.8321 147.818 0 101.15 0C54.482 0 16.6499 37.8321 16.6499 84.5C16.6499 131.168 54.482 169 101.15 169Z" fill="url(#paint0_linear_91_6464)"/>
<g filter="url(#filter0_i_91_6464)">
<path d="M134.624 24.3332H69.4625C63.2401 24.3332 58.1958 29.3774 58.1958 35.5999V122.233C58.1958 128.455 63.2401 133.499 69.4625 133.499H134.624C140.846 133.499 145.891 128.455 145.891 122.233V35.5999C145.891 29.3774 140.846 24.3332 134.624 24.3332Z" fill="url(#paint1_linear_91_6464)"/>
</g>
<path d="M97.6998 38.4165H69.3923C67.4867 38.4165 65.9419 39.9613 65.9419 41.8669C65.9419 43.7725 67.4867 45.3173 69.3923 45.3173H97.6998C99.6054 45.3173 101.15 43.7725 101.15 41.8669C101.15 39.9613 99.6054 38.4165 97.6998 38.4165Z" fill="#848383"/>
<path d="M132.908 57.9924H69.3923C67.4867 57.9924 65.9419 59.5372 65.9419 61.4428C65.9419 63.3484 67.4867 64.8932 69.3923 64.8932H132.908C134.814 64.8932 136.359 63.3484 136.359 61.4428C136.359 59.5372 134.814 57.9924 132.908 57.9924Z" fill="#D5D5D5"/>
<path d="M132.908 77.5682H69.3923C67.4867 77.5682 65.9419 79.113 65.9419 81.0186C65.9419 82.9242 67.4867 84.469 69.3923 84.469H132.908C134.814 84.469 136.359 82.9242 136.359 81.0186C136.359 79.113 134.814 77.5682 132.908 77.5682Z" fill="#D5D5D5"/>
<path d="M132.908 97.144H69.3923C67.4867 97.144 65.9419 98.6888 65.9419 100.594C65.9419 102.5 67.4867 104.045 69.3923 104.045H132.908C134.814 104.045 136.359 102.5 136.359 100.594C136.359 98.6888 134.814 97.144 132.908 97.144Z" fill="#D5D5D5"/>
<path d="M132.908 116.72H69.3923C67.4867 116.72 65.9419 118.265 65.9419 120.17C65.9419 122.076 67.4867 123.621 69.3923 123.621H132.908C134.814 123.621 136.359 122.076 136.359 120.17C136.359 118.265 134.814 116.72 132.908 116.72Z" fill="#D5D5D5"/>
<g filter="url(#filter1_i_91_6464)">
<path d="M198.431 12.2694H156.124C154.153 12.2694 152.554 13.951 152.554 16.0261V36.9533C152.554 39.0277 154.153 40.71 156.124 40.71H198.431C200.402 40.71 202 39.0277 202 36.9533V16.0261C202 13.951 200.402 12.2694 198.431 12.2694Z" fill="white"/>
</g>
<path d="M163.117 30.9833C165.45 30.9833 167.342 29.0919 167.342 26.7583C167.342 24.4247 165.45 22.5333 163.117 22.5333C160.783 22.5333 158.892 24.4247 158.892 26.7583C158.892 29.0919 160.783 30.9833 163.117 30.9833Z" fill="#CCC6D9"/>
<path d="M191.283 22.5333H177.2C174.866 22.5333 172.975 24.4249 172.975 26.7583C172.975 29.0917 174.866 30.9833 177.2 30.9833H191.283C193.616 30.9833 195.508 29.0917 195.508 26.7583C195.508 24.4249 193.616 22.5333 191.283 22.5333Z" fill="#D5D5D5"/>
<path fill-rule="evenodd" clip-rule="evenodd" d="M125.872 138.413C134.942 138.413 143.371 135.67 150.374 130.968L179.033 158.326L189.427 146.267L161.772 119.867C166.88 112.679 169.883 103.892 169.883 94.4027C169.883 70.097 150.179 50.3923 125.872 50.3923C101.567 50.3923 81.8618 70.097 81.8618 94.4027C81.8618 118.709 101.567 138.413 125.872 138.413ZM163.411 94.4027C163.411 114.981 146.729 131.663 126.151 131.663C105.573 131.663 88.8915 114.981 88.8915 94.4027C88.8915 73.8248 105.573 57.1431 126.151 57.1431C146.729 57.1431 163.411 73.8248 163.411 94.4027Z" fill="#CCC6D9"/>
<path d="M126.148 132.383C147.343 132.383 164.525 115.359 164.525 94.3583C164.525 73.358 147.343 56.3333 126.148 56.3333C104.953 56.3333 87.771 73.358 87.771 94.3583C87.771 115.359 104.953 132.383 126.148 132.383Z" fill="white" fill-opacity="0.3"/>
<path d="M132.783 94.3583L142.071 85.107C142.941 84.1916 143.418 82.9755 143.399 81.7164C143.382 80.4574 142.87 79.2554 141.975 78.3646C141.079 77.4745 139.869 76.9661 138.603 76.9485C137.336 76.9309 136.112 77.4041 135.191 78.2688L125.883 87.5202L116.596 78.2688C116.149 77.7992 115.611 77.4231 115.016 77.1626C114.42 76.9028 113.778 76.764 113.127 76.7549C112.477 76.7457 111.831 76.8661 111.228 77.1091C110.625 77.3527 110.077 77.7132 109.617 78.1709C109.157 78.628 108.794 79.1723 108.549 79.7715C108.304 80.3708 108.183 81.013 108.192 81.6601C108.202 82.3065 108.341 82.9445 108.603 83.5367C108.864 84.1289 109.243 84.6627 109.716 85.107L119.019 94.3583L109.716 103.61C109.243 104.054 108.864 104.588 108.603 105.18C108.341 105.772 108.202 106.41 108.192 107.057C108.183 107.704 108.304 108.345 108.549 108.945C108.794 109.544 109.157 110.089 109.617 110.546C110.077 111.003 110.625 111.364 111.228 111.608C111.831 111.851 112.477 111.971 113.127 111.962C113.778 111.953 114.42 111.814 115.016 111.554C115.611 111.294 116.149 110.918 116.596 110.448L125.904 101.197L135.212 110.448C136.141 111.261 137.348 111.692 138.586 111.652C139.824 111.613 141 111.105 141.875 110.233C142.749 109.361 143.256 108.19 143.293 106.96C143.33 105.729 142.892 104.531 142.071 103.61L132.783 94.3583Z" fill="#848383"/>
<path d="M179.032 158.327L189.425 146.267L190.991 147.762C192.51 149.212 193.419 151.237 193.519 153.394C193.619 155.549 192.901 157.658 191.523 159.256C190.146 160.855 188.22 161.812 186.173 161.917C184.124 162.022 182.12 161.266 180.601 159.816L179.036 158.322L179.032 158.327Z" fill="#E1DCEB"/>
<path fill-rule="evenodd" clip-rule="evenodd" d="M35.1794 43.7794C35.1667 42.7753 35.0406 41.762 34.7886 40.7424C33.9048 37.1638 29.9629 34.8661 25.7675 34.326C21.5742 33.7859 17.2126 35.0154 15.5317 38.1285C14.5705 39.9079 14.4381 41.4416 14.8311 42.7352C15.2219 44.0217 16.15 45.0878 17.4097 45.9194C20.9221 48.234 27.0737 48.7065 29.8805 47.739C31.1783 47.2904 32.4465 46.7503 33.6809 46.1321C32.9753 50.1782 30.3446 54.011 26.8336 57.4649C19.2032 64.972 7.36316 70.6702 0.91504 72.7651C0.56859 72.8777 0.376283 73.2615 0.484021 73.6234C0.591758 73.9854 0.959752 74.1882 1.3062 74.0755C7.88199 71.9391 19.9525 66.1198 27.7335 58.4641C31.7536 54.5102 34.6174 50.0585 35.1068 45.3786C44.1941 40.3079 51.6562 31.108 58.0366 23.3649C58.2739 23.0798 58.2422 22.6453 57.9669 22.3974C57.6916 22.1517 57.2775 22.1826 57.0402 22.4699C50.9203 29.8961 43.8174 38.7292 35.1794 43.7794ZM33.8584 44.5153C33.9083 43.3865 33.802 42.2401 33.5154 41.0839C32.7514 37.9863 29.239 36.1547 25.6069 35.6871C23.3811 35.4013 21.0918 35.6372 19.2962 36.4751C18.1674 37.0011 17.2379 37.7644 16.6774 38.8031C15.9415 40.1656 15.7824 41.331 16.0838 42.3197C16.3859 43.3154 17.1351 44.1153 18.1111 44.7575C21.3122 46.8679 26.9132 47.3165 29.4679 46.4348C30.9741 45.9159 32.4366 45.268 33.8584 44.5153Z" fill="#848383"/>
<path d="M196.212 113.371C198.546 113.371 200.437 111.479 200.437 109.146C200.437 106.812 198.546 104.921 196.212 104.921C193.879 104.921 191.987 106.812 191.987 109.146C191.987 111.479 193.879 113.371 196.212 113.371Z" fill="#E3E3E3"/>
<path fill-rule="evenodd" clip-rule="evenodd" d="M36.6369 138.294C37.391 138.012 38.1846 137.636 38.7965 137.091C39.5232 136.446 39.8183 135.613 40.0169 134.737C40.2718 133.611 40.3739 132.413 40.6823 131.286C40.7971 130.867 41.0175 130.708 41.1118 130.638C41.3506 130.461 41.5921 130.413 41.8188 130.431C42.0878 130.452 42.4575 130.559 42.7004 131.033C42.7357 131.102 42.7807 131.205 42.811 131.347C42.8328 131.451 42.8469 131.776 42.8709 131.91C42.9293 132.24 42.9779 132.571 43.0237 132.902C43.1772 134.007 43.2652 134.946 43.7482 135.961C44.4038 137.339 45.0608 138.182 45.9516 138.556C46.8128 138.917 47.843 138.849 49.1591 138.566C49.2844 138.534 49.4083 138.507 49.5309 138.484C50.1111 138.378 50.666 138.779 50.78 139.387C50.8934 139.995 50.5251 140.587 49.9498 140.721C49.8301 140.749 49.7118 140.775 49.5942 140.8C47.8162 141.263 45.7572 142.916 44.5608 144.364C44.1919 144.81 43.6525 146.059 43.1018 146.855C42.6948 147.443 42.2385 147.829 41.8547 147.967C41.5977 148.059 41.3808 148.044 41.202 147.998C40.9421 147.931 40.7267 147.782 40.5612 147.546C40.4711 147.417 40.3873 147.244 40.3471 147.024C40.3281 146.917 40.326 146.648 40.3267 146.525C40.214 146.119 40.0767 145.722 39.9767 145.312C39.738 144.334 39.2697 143.715 38.7134 142.897C38.1924 142.131 37.634 141.649 36.8143 141.266C36.708 141.238 35.8475 141.016 35.544 140.89C35.1004 140.703 34.8884 140.39 34.8117 140.222C34.6814 139.937 34.668 139.688 34.6941 139.479C34.7328 139.172 34.8638 138.91 35.0954 138.698C35.2398 138.566 35.4546 138.438 35.7426 138.375C35.9644 138.327 36.5545 138.298 36.6369 138.294ZM41.6829 136.7C41.7231 136.794 41.7653 136.887 41.8104 136.982C42.7709 139 43.8447 140.128 45.1495 140.674L45.1939 140.692C44.3207 141.374 43.53 142.137 42.9258 142.868C42.6772 143.169 42.3477 143.794 41.9921 144.435C41.6688 143.33 41.14 142.548 40.4753 141.569C39.9676 140.823 39.4352 140.261 38.7818 139.803C39.2888 139.529 39.7732 139.208 40.195 138.834C40.8964 138.209 41.3611 137.486 41.6829 136.7Z" fill="#CCC6D9"/>
<defs>
<filter id="filter0_i_91_6464" x="58.1958" y="24.3332" width="87.6948" height="123.25" filterUnits="userSpaceOnUse" color-interpolation-filters="sRGB">
<feFlood flood-opacity="0" result="BackgroundImageFix"/>
<feBlend mode="normal" in="SourceGraphic" in2="BackgroundImageFix" result="shape"/>
<feColorMatrix in="SourceAlpha" type="matrix" values="0 0 0 0 0 0 0 0 0 0 0 0 0 0 0 0 0 0 127 0" result="hardAlpha"/>
<feOffset dy="14.0833"/>
<feGaussianBlur stdDeviation="10.5625"/>
<feComposite in2="hardAlpha" operator="arithmetic" k2="-1" k3="1"/>
<feColorMatrix type="matrix" values="0 0 0 0 0.570833 0 0 0 0 0.570833 0 0 0 0 0.570833 0 0 0 0.19 0"/>
<feBlend mode="normal" in2="shape" result="effect1_innerShadow_91_6464"/>
</filter>
<filter id="filter1_i_91_6464" x="152.554" y="12.2694" width="53.6708" height="31.2572" filterUnits="userSpaceOnUse" color-interpolation-filters="sRGB">
<feFlood flood-opacity="0" result="BackgroundImageFix"/>
<feBlend mode="normal" in="SourceGraphic" in2="BackgroundImageFix" result="shape"/>
<feColorMatrix in="SourceAlpha" type="matrix" values="0 0 0 0 0 0 0 0 0 0 0 0 0 0 0 0 0 0 127 0" result="hardAlpha"/>
<feOffset dx="4.225" dy="2.81667"/>
<feGaussianBlur stdDeviation="4.57708"/>
<feComposite in2="hardAlpha" operator="arithmetic" k2="-1" k3="1"/>
<feColorMatrix type="matrix" values="0 0 0 0 0.104618 0 0 0 0 0.465612 0 0 0 0 0.545833 0 0 0 0.09 0"/>
<feBlend mode="normal" in2="shape" result="effect1_innerShadow_91_6464"/>
</filter>
<linearGradient id="paint0_linear_91_6464" x1="100.499" y1="-27.5152" x2="102.229" y2="269.236" gradientUnits="userSpaceOnUse">
<stop stop-color="#F2F2F2"/>
<stop offset="1" stop-color="#EFEFEF"/>
</linearGradient>
<linearGradient id="paint1_linear_91_6464" x1="102.044" y1="24.3332" x2="102.044" y2="133.499" gradientUnits="userSpaceOnUse">
<stop stop-color="#E2E0E0"/>
<stop offset="0.71875" stop-color="#FAFAFA"/>
</linearGradient>
</defs>
</svg>
