<svg width="194" height="171" viewBox="0 0 194 171" fill="none" xmlns="http://www.w3.org/2000/svg">
<path fill-rule="evenodd" clip-rule="evenodd" d="M1.95757 132.354C2.7129 132.085 3.50781 131.727 4.12077 131.209C4.8488 130.594 5.14488 129.802 5.34375 128.968C5.59898 127.896 5.70099 126.755 6.01055 125.682C6.12518 125.283 6.34571 125.133 6.44038 125.066C6.67953 124.897 6.92136 124.852 7.14908 124.869C7.41856 124.888 7.78893 124.99 8.03231 125.443C8.06688 125.507 8.11202 125.605 8.14236 125.74C8.16493 125.84 8.17904 126.149 8.20232 126.276C8.26087 126.591 8.31026 126.905 8.35611 127.221C8.5092 128.274 8.59738 129.167 9.08132 130.133C9.7381 131.445 10.3963 132.247 11.2894 132.603C12.1522 132.947 13.1842 132.882 14.5027 132.613C14.6276 132.582 14.7518 132.556 14.8752 132.535C15.4565 132.434 16.0117 132.815 16.126 133.394C16.2403 133.973 15.8706 134.537 15.295 134.664C15.1743 134.69 15.0558 134.716 14.9387 134.738C13.1574 135.18 11.0947 136.754 9.89612 138.132C9.52646 138.557 8.98538 139.746 8.43371 140.503C8.02667 141.063 7.56882 141.431 7.18506 141.561C6.92742 141.649 6.71036 141.636 6.5311 141.591C6.27058 141.527 6.05442 141.386 5.88857 141.161C5.79827 141.039 5.71447 140.874 5.67454 140.664C5.65542 140.563 5.6533 140.306 5.65373 140.189C5.54128 139.803 5.40364 139.425 5.3034 139.035C5.06418 138.103 4.59484 137.514 4.03746 136.735C3.51606 136.006 2.95607 135.548 2.13513 135.183C2.02833 135.157 1.16661 134.946 0.862278 134.824C0.417701 134.647 0.205854 134.35 0.12903 134.189C-0.00169067 133.918 -0.0150919 133.68 0.0109394 133.483C0.0495983 133.19 0.180669 132.94 0.413398 132.738C0.557522 132.613 0.772826 132.491 1.06107 132.431C1.28379 132.385 1.87461 132.358 1.95757 132.354ZM7.01293 130.836C7.05286 130.925 7.09547 131.015 7.14061 131.105C8.10285 133.026 9.17867 134.099 10.4859 134.62L10.5296 134.637C9.65486 135.286 8.86333 136.012 8.25805 136.708C8.00903 136.994 7.67887 137.59 7.32262 138.2C6.9986 137.147 6.46902 136.403 5.80307 135.472C5.29423 134.761 4.76111 134.226 4.10603 133.79C4.61438 133.53 5.09931 133.224 5.52174 132.867C6.22501 132.273 6.68997 131.584 7.01293 130.836Z" fill="#E3E3E3"/>
<path d="M21.1639 8.46545C23.5016 8.46545 25.3966 6.5704 25.3966 4.23273C25.3966 1.89506 23.5016 0 21.1639 0C18.8262 0 16.9312 1.89506 16.9312 4.23273C16.9312 6.5704 18.8262 8.46545 21.1639 8.46545Z" fill="#E3E3E3"/>
<path d="M189.767 96.6473C192.105 96.6473 194 94.7522 194 92.4146C194 90.0769 192.105 88.1818 189.767 88.1818C187.43 88.1818 185.535 90.0769 185.535 92.4146C185.535 94.7522 187.43 96.6473 189.767 96.6473Z" fill="#E3E3E3"/>
<path opacity="0.2" d="M91.0038 160.844C135.419 160.844 171.426 124.837 171.426 80.4218C171.426 36.0064 135.419 0 91.0038 0C46.5884 0 10.582 36.0064 10.582 80.4218C10.582 124.837 46.5884 160.844 91.0038 160.844Z" fill="url(#paint0_linear_91_6507)"/>
<path fill-rule="evenodd" clip-rule="evenodd" d="M90.651 31.7455C99.417 31.7455 106.524 24.6387 106.524 15.8727C106.524 7.10647 99.417 0 90.651 0C81.8851 0 74.7783 7.10647 74.7783 15.8727C74.7783 24.6387 81.8851 31.7455 90.651 31.7455ZM90.2983 24.6909C94.9734 24.6909 98.7638 20.9005 98.7638 16.2255C98.7638 11.5504 94.9734 7.76 90.2983 7.76C85.6233 7.76 81.8329 11.5504 81.8329 16.2255C81.8329 20.9005 85.6233 24.6909 90.2983 24.6909Z" fill="#848383"/>
<path d="M90.3336 143.278C107.496 143.278 121.409 129.365 121.409 112.203C121.409 95.0402 107.496 81.1273 90.3336 81.1273C73.1713 81.1273 59.2583 95.0402 59.2583 112.203C59.2583 129.365 73.1713 143.278 90.3336 143.278Z" fill="url(#paint1_linear_91_6507)"/>
<path d="M139.516 89.0982V65.2574C139.516 52.253 134.35 39.782 125.155 30.5864C115.959 21.3915 103.488 16.2254 90.4837 16.2254C77.48 16.2254 65.0083 21.3915 55.8134 30.5864C46.6178 39.782 41.4518 52.253 41.4518 65.2574V89.0982C41.4525 94.5753 39.9033 99.941 36.9827 104.574C34.0621 109.209 29.8901 112.921 24.9491 115.284C23.8133 115.824 22.8546 116.677 22.1844 117.742C21.5142 118.806 21.1601 120.039 21.1636 121.297V121.426C21.1629 121.881 21.2518 122.331 21.4246 122.751C21.5982 123.171 21.8528 123.553 22.1738 123.874C22.4948 124.196 22.8757 124.451 23.2955 124.625C23.7152 124.799 24.1646 124.889 24.6196 124.889H156.342C156.796 124.889 157.246 124.799 157.666 124.625C158.085 124.451 158.467 124.196 158.788 123.874C159.109 123.553 159.363 123.171 159.536 122.751C159.709 122.331 159.798 121.881 159.797 121.426V121.297C159.798 120.044 159.443 118.815 158.774 117.754C158.106 116.693 157.151 115.843 156.019 115.303C151.074 112.939 146.9 109.223 143.98 104.586C141.059 99.9488 139.511 94.5789 139.516 89.0982Z" fill="#E1DCEB"/>
<path fill-rule="evenodd" clip-rule="evenodd" d="M160.138 124.865H21.1636V120.633H160.138V124.865Z" fill="#848383"/>
<path d="M125.39 56.7805C134.536 56.7805 141.951 49.3659 141.951 40.2195C141.951 31.0731 134.536 23.6585 125.39 23.6585C116.244 23.6585 108.829 31.0731 108.829 40.2195C108.829 49.3659 116.244 56.7805 125.39 56.7805Z" fill="white"/>
<path fill-rule="evenodd" clip-rule="evenodd" d="M52.2796 135.66C48.9004 138.716 45.5305 141.711 42.2409 144.864C41.5313 145.54 41.5044 146.654 42.176 147.357C42.8497 148.066 43.9707 148.088 44.6741 147.414C47.9467 144.281 51.2877 141.311 54.645 138.277C55.368 137.619 55.4238 136.502 54.7769 135.784C54.1208 135.062 53.0027 135.002 52.2796 135.66Z" fill="#848383"/>
<path fill-rule="evenodd" clip-rule="evenodd" d="M128.622 135.662C131.982 138.718 135.333 141.714 138.603 144.867C139.309 145.543 139.33 146.657 138.655 147.357C137.979 148.065 136.859 148.086 136.16 147.412C132.907 144.279 129.585 141.308 126.246 138.273C125.527 137.615 125.477 136.5 126.126 135.783C126.785 135.062 127.903 135.004 128.622 135.662Z" fill="#848383"/>
<path fill-rule="evenodd" clip-rule="evenodd" d="M88.2896 155.409C88.236 159.955 88.1436 164.453 88.2226 168.999C88.236 169.977 89.0345 170.75 90.0052 170.732C90.9823 170.716 91.759 169.909 91.7421 168.938C91.6673 164.417 91.7583 159.958 91.8126 155.442C91.8211 154.466 91.0409 153.671 90.0758 153.66C89.1016 153.653 88.2987 154.433 88.2896 155.409Z" fill="#848383"/>
<defs>
<linearGradient id="paint0_linear_91_6507" x1="90.3838" y1="-26.1873" x2="92.0317" y2="256.242" gradientUnits="userSpaceOnUse">
<stop stop-color="#F2F2F2"/>
<stop offset="1" stop-color="#EFEFEF"/>
</linearGradient>
<linearGradient id="paint1_linear_91_6507" x1="59.2583" y1="81.0278" x2="121.857" y2="131.109" gradientUnits="userSpaceOnUse">
<stop stop-color="#E1DCEB"/>
<stop offset="1" stop-color="#B3AFBA"/>
</linearGradient>
</defs>
</svg>
