<svg width="209" height="169" viewBox="0 0 209 169" fill="none" xmlns="http://www.w3.org/2000/svg">
<path opacity="0.2" d="M100.951 169C148.138 169 186.39 131.168 186.39 84.4999C186.39 37.8319 148.138 -9.15527e-05 100.951 -9.15527e-05C53.7638 -9.15527e-05 15.5112 37.8319 15.5112 84.4999C15.5112 131.168 53.7638 169 100.951 169Z" fill="url(#paint0_linear_91_6520)"/>
<path fill-rule="evenodd" clip-rule="evenodd" d="M174.667 138.365C175.446 138.091 176.265 137.726 176.897 137.198C177.647 136.571 177.953 135.763 178.157 134.913C178.421 133.821 178.526 132.658 178.845 131.564C178.963 131.157 179.19 131.004 179.288 130.936C179.534 130.763 179.784 130.717 180.018 130.735C180.296 130.755 180.678 130.859 180.929 131.319C180.964 131.385 181.011 131.486 181.042 131.623C181.065 131.724 181.08 132.04 181.104 132.17C181.164 132.49 181.215 132.811 181.262 133.133C181.42 134.205 181.511 135.116 182.01 136.101C182.687 137.439 183.366 138.257 184.286 138.619C185.175 138.97 186.239 138.904 187.598 138.629C187.727 138.598 187.855 138.571 187.982 138.55C188.581 138.446 189.154 138.835 189.271 139.426C189.389 140.016 189.008 140.59 188.414 140.72C188.29 140.747 188.168 140.773 188.047 140.796C186.211 141.246 184.085 142.851 182.85 144.256C182.469 144.689 181.911 145.9 181.343 146.673C180.923 147.243 180.451 147.619 180.055 147.751C179.79 147.841 179.566 147.827 179.381 147.782C179.113 147.716 178.89 147.573 178.719 147.344C178.626 147.218 178.54 147.051 178.498 146.837C178.479 146.733 178.476 146.471 178.477 146.353C178.361 145.959 178.219 145.574 178.116 145.176C177.869 144.226 177.386 143.625 176.811 142.831C176.274 142.088 175.696 141.622 174.85 141.249C174.74 141.222 173.852 141.007 173.538 140.884C173.08 140.703 172.862 140.4 172.782 140.236C172.648 139.959 172.634 139.717 172.661 139.515C172.701 139.218 172.836 138.963 173.076 138.757C173.224 138.629 173.446 138.505 173.743 138.444C173.973 138.397 174.582 138.369 174.667 138.365ZM179.878 136.818C179.919 136.909 179.963 137 180.01 137.092C181.001 139.051 182.11 140.144 183.458 140.675L183.503 140.692C182.601 141.354 181.785 142.094 181.161 142.804C180.904 143.096 180.564 143.702 180.197 144.325C179.863 143.251 179.317 142.493 178.631 141.544C178.106 140.819 177.557 140.274 176.882 139.83C177.406 139.564 177.906 139.252 178.341 138.888C179.066 138.282 179.545 137.581 179.878 136.818Z" fill="#E3E3E3"/>
<ellipse cx="4.04648" cy="68.0337" rx="4.04648" ry="4.00199" fill="#E3E3E3"/>
<path fill-rule="evenodd" clip-rule="evenodd" d="M39.0362 32.1717C37.9863 28.5915 35.9187 25.7907 32.7497 23.7681C32.3761 23.5295 32.2666 23.0335 32.5081 22.6615C32.7465 22.2896 33.2457 22.1813 33.6193 22.42C37.1264 24.6594 39.4195 27.7588 40.5821 31.7229C40.7077 32.1471 40.4597 32.5924 40.0346 32.7161C39.6062 32.8401 39.1586 32.5959 39.0362 32.1717Z" fill="#E1DCEB"/>
<path fill-rule="evenodd" clip-rule="evenodd" d="M75.2193 27.3128C75.8441 28.0443 76.4045 28.8324 76.8811 29.6715C77.0937 30.045 77.4673 30.8389 77.5253 31.5197C77.5897 32.2451 77.3417 32.857 76.704 33.1793C75.857 33.6067 75.1807 33.5622 74.659 33.3036C74.1566 33.0553 73.7637 32.5674 73.5157 31.9132C73.0423 30.6627 73.1131 28.7517 73.3611 27.6611C72.6945 26.9768 71.9634 26.3562 71.1808 25.8045C65.3516 21.6956 56.801 23.2107 50.2215 29.3543C47.9188 31.5053 46.8109 36.0227 46.2344 40.8967C45.3359 48.4855 45.848 56.9616 45.9188 59.4448C45.9349 60.058 45.877 60.422 45.8448 60.4947C45.6934 60.8523 45.4261 60.9452 45.2393 60.9804C44.9688 61.0285 44.753 60.9772 44.5791 60.8875C44.344 60.7645 44.1507 60.5479 44.0606 60.2137C44.0123 60.0292 43.9994 59.7723 44.0058 59.4983C44.0123 59.3083 44.0509 59.1007 44.0123 58.9646C43.7611 58.0925 43.4583 57.2409 43.1621 56.3833C42.1734 53.5001 40.8948 50.7984 39.4745 48.0998C34.9625 39.5251 30.5987 30.4651 23.2011 23.9322C22.8694 23.639 22.8372 23.1322 23.1335 22.8015C23.4265 22.4709 23.9354 22.4408 24.2703 22.7342C31.8161 29.3963 36.2991 38.6123 40.9012 47.3568C42.1089 49.6524 43.2168 51.9511 44.1379 54.3556C44.0445 50.1022 44.0799 44.2145 44.8625 39.0051C45.5582 34.3721 46.8818 30.2776 49.1201 28.1865C56.3276 21.4562 65.7284 19.9963 72.1115 24.4976C72.7943 24.9795 73.4448 25.5094 74.0503 26.0842C77.39 20.085 84.5396 17.6806 90.8583 20.5499C91.2641 20.7335 91.4412 21.2089 91.2577 21.611C91.0709 22.0131 90.5943 22.1906 90.1885 22.007C84.4945 19.4215 78.0373 21.7289 75.2193 27.3128ZM74.7524 29.3213C75.0132 29.6878 75.2548 30.0678 75.4802 30.4606C75.5994 30.6714 75.8055 31.0767 75.8925 31.4733C75.9118 31.5662 75.915 31.7117 75.915 31.7789C75.6928 31.8879 75.5189 31.9404 75.3772 31.8696C75.2 31.7825 75.1098 31.5774 75.0229 31.3483C74.8039 30.7736 74.733 30.0117 74.7524 29.3213Z" fill="#E1DCEB"/>
<rect x="61.5186" y="43.8409" width="147.08" height="52.4373" rx="17.8678" fill="#848383"/>
<rect x="100.879" y="56.4405" width="70.7403" height="9.80879" rx="4.90439" fill="#CCC6D9"/>
<rect x="74.3452" y="72.2085" width="97.7328" height="6.87702" rx="3.43851" fill="white"/>
<ellipse cx="189.786" cy="70.4893" rx="8.55114" ry="8.59628" fill="#E1DCEB"/>
<rect y="87.6818" width="147.08" height="52.4373" rx="17.8678" fill="#E1DCEB"/>
<rect x="36.7695" y="105.734" width="49.5966" height="6.87702" rx="3.43851" fill="#CCC6D9"/>
<rect x="36.7695" y="116.05" width="97.7328" height="6.87702" rx="3.43851" fill="white"/>
<ellipse cx="21.3778" cy="114.33" rx="8.55113" ry="8.59628" fill="#CCC6D9"/>
<defs>
<linearGradient id="paint0_linear_91_6520" x1="100.292" y1="-27.5154" x2="102.004" y2="269.236" gradientUnits="userSpaceOnUse">
<stop stop-color="#F2F2F2"/>
<stop offset="1" stop-color="#EFEFEF"/>
</linearGradient>
</defs>
</svg>
