<svg width="24" height="16" viewBox="0 0 24 16" fill="none" xmlns="http://www.w3.org/2000/svg">
<path fill-rule="evenodd" clip-rule="evenodd" d="M16.0682 13.1624C18.8259 13.1624 21.0613 10.7516 21.0613 7.77778C21.0613 4.80394 18.8259 2.39316 16.0682 2.39316C14.5848 2.39316 13.2522 3.08994 12.3364 4.20022C12.3101 4.245 12.2807 4.28844 12.2483 4.33018L12.0276 4.61381C12.0095 4.64057 11.9858 4.66305 11.9681 4.69018L7.95131 9.8526C7.55741 10.3588 6.85754 10.4249 6.38811 10.0001C5.91867 9.57529 5.85744 8.82055 6.25134 8.3143L10.092 3.37825C9.278 2.75715 8.28514 2.39316 7.21226 2.39316C4.45465 2.39316 2.21916 4.80394 2.21916 7.77778C2.21916 10.7516 4.45465 13.1624 7.21226 13.1624C8.69571 13.1624 10.0284 12.4656 10.9441 11.3553C10.9704 11.3106 10.9998 11.2671 11.0323 11.2254L11.253 10.9417C11.2711 10.915 11.2947 10.8925 11.3124 10.8654L15.3293 5.70295C15.7232 5.19672 16.423 5.13069 16.8924 5.55548C17.3619 5.98026 17.4232 6.73501 17.0293 7.24126L13.1886 12.1774C14.0025 12.7984 14.9954 13.1624 16.0682 13.1624ZM11.6403 13.9173C12.8619 14.9433 14.3994 15.5556 16.0682 15.5556C20.0515 15.5556 23.2805 12.0734 23.2805 7.77778C23.2805 3.48223 20.0515 3.75529e-07 16.0682 0C14.3988 -1.57396e-07 12.862 0.61225 11.6404 1.63819C10.4186 0.612293 8.88105 6.79955e-07 7.21226 6.79955e-07C3.22904 6.79955e-07 0 3.48223 0 7.77778C0 12.0734 3.22904 15.5556 7.21226 15.5556C8.88175 15.5556 10.4186 14.9433 11.6403 13.9173Z" fill="white"/>
</svg>
