<svg width="18" height="18" viewBox="0 0 18 18" fill="none" xmlns="http://www.w3.org/2000/svg">
<path d="M9.00002 3.48389C5.95355 3.48389 3.48389 5.95355 3.48389 9.00002C3.48389 12.0465 5.95355 14.5161 9.00002 14.5161C12.0465 14.5161 14.5161 12.0465 14.5161 9.00002C14.5161 5.95355 12.0465 3.48389 9.00002 3.48389Z" fill="#36313E"/>
<path fill-rule="evenodd" clip-rule="evenodd" d="M9 0C9.481 0 9.871 0.38995 9.871 0.87097V0.93775C9.871 1.41877 9.481 1.80872 9 1.80872C8.519 1.80872 8.129 1.41877 8.129 0.93775V0.87097C8.129 0.38995 8.519 0 9 0ZM2.57766 2.57768C2.91779 2.23755 3.46926 2.23755 3.80939 2.57768L3.91499 2.68328C4.25512 3.02341 4.25512 3.57488 3.91499 3.91501C3.57485 4.25515 3.02339 4.25515 2.68325 3.91501L2.57766 3.80942C2.23752 3.46928 2.23752 2.91781 2.57766 2.57768ZM15.4224 2.57768C15.7625 2.91782 15.7625 3.46928 15.4224 3.80942L15.3168 3.91501C14.9766 4.25515 14.4252 4.25515 14.085 3.91501C13.7449 3.57488 13.7449 3.02341 14.085 2.68328L14.1906 2.57768C14.5308 2.23755 15.0822 2.23755 15.4224 2.57768ZM0 9C0 8.519 0.38995 8.129 0.87097 8.129H0.93775C1.41877 8.129 1.80872 8.519 1.80872 9C1.80872 9.481 1.41877 9.871 0.93775 9.871H0.87097C0.38995 9.871 0 9.481 0 9ZM16.1913 9C16.1913 8.519 16.5813 8.129 17.0623 8.129H17.129C17.6101 8.129 18 8.519 18 9C18 9.481 17.6101 9.871 17.129 9.871H17.0623C16.5813 9.871 16.1913 9.481 16.1913 9ZM14.085 14.0851C14.4251 13.7449 14.9765 13.7449 15.3167 14.085L15.4223 14.1905C15.7624 14.5306 15.7625 15.0821 15.4224 15.4223C15.0823 15.7624 14.5308 15.7625 14.1906 15.4224L14.0851 15.3168C13.7449 14.9767 13.7449 14.4253 14.085 14.0851ZM3.91492 14.085C4.2551 14.4251 4.25516 14.9765 3.91506 15.3167L3.80949 15.4223C3.4694 15.7625 2.91793 15.7625 2.57776 15.4225C2.23759 15.0824 2.23752 14.5309 2.57762 14.1907L2.68319 14.0851C3.02328 13.7449 3.57475 13.7449 3.91492 14.085ZM9 16.1913C9.481 16.1913 9.871 16.5813 9.871 17.0623V17.129C9.871 17.6101 9.481 18 9 18C8.519 18 8.129 17.6101 8.129 17.129V17.0623C8.129 16.5813 8.519 16.1913 9 16.1913Z" fill="#36313E"/>
</svg>
