<svg width="17" height="17" viewBox="0 0 17 17" fill="none" xmlns="http://www.w3.org/2000/svg">
<path d="M8.13373 16.6667C3.64147 16.6667 0 12.9358 0 8.33333C0 3.73083 3.64147 0 8.13373 0C12.626 0 16.2675 3.73083 16.2675 8.33333C16.2675 12.9358 12.626 16.6667 8.13373 16.6667ZM4.88024 9.16667C4.88024 10.0507 5.22302 10.8986 5.83317 11.5237C6.44331 12.1488 7.27085 12.5 8.13373 12.5C8.99661 12.5 9.82415 12.1488 10.4343 11.5237C11.0444 10.8986 11.3872 10.0507 11.3872 9.16667H4.88024ZM4.88024 7.5C5.20382 7.5 5.51415 7.3683 5.74295 7.13388C5.97176 6.89946 6.1003 6.58152 6.1003 6.25C6.1003 5.91848 5.97176 5.60054 5.74295 5.36612C5.51415 5.1317 5.20382 5 4.88024 5C4.55666 5 4.24633 5.1317 4.01753 5.36612C3.78872 5.60054 3.66018 5.91848 3.66018 6.25C3.66018 6.58152 3.78872 6.89946 4.01753 7.13388C4.24633 7.3683 4.55666 7.5 4.88024 7.5V7.5ZM11.3872 7.5C11.7108 7.5 12.0211 7.3683 12.2499 7.13388C12.4787 6.89946 12.6073 6.58152 12.6073 6.25C12.6073 5.91848 12.4787 5.60054 12.2499 5.36612C12.0211 5.1317 11.7108 5 11.3872 5C11.0636 5 10.7533 5.1317 10.5245 5.36612C10.2957 5.60054 10.1672 5.91848 10.1672 6.25C10.1672 6.58152 10.2957 6.89946 10.5245 7.13388C10.7533 7.3683 11.0636 7.5 11.3872 7.5Z" fill="white"/>
</svg>
